<?xml version="1.0" encoding="UTF-8"?>
<svg width="3645.99988px" height="754.021627px" viewBox="0 0 3645.99988 754.021627" version="1.1" xmlns="http://www.w3.org/2000/svg" xmlns:xlink="http://www.w3.org/1999/xlink">
    <title>Group 3</title>
    <g id="Page-1" stroke="none" stroke-width="1" fill="none" fill-rule="evenodd">
        <g id="Group-3" fill="#FFFFFF" fill-rule="nonzero">
            <g id="TaivLogo-16" fill-opacity="0.7">
                <path d="M0,26.40897 L0,639.151714 L1078.03237,639.151714 L31.472207,18.6684098 C19.8704733,11.7838646 0,16.6649707 0,26.40897 Z" id="Path"></path>
                <path d="M151.678553,0 L1196.6906,623.41561 C1208.87516,630.700843 1229.69271,625.528328 1229.69271,615.256149 L1229.69271,0 L151.678553,0 Z" id="Path"></path>
                <path d="M0,26.40897 L0,639.151714 L911.07304,639.151714 L26.6093139,18.6684098 C16.7924623,11.7838646 0,16.6649707 0,26.40897 Z" id="Path" opacity="0.71"></path>
                <path d="M151.678553,0 L1196.6906,489.494813 C1208.87516,495.195508 1229.69271,491.170416 1229.69271,483.102021 L1229.69271,0 L151.678553,0 Z" id="Path" opacity="0.55"></path>
                <path d="M138.419429,127.491579 L0,639.151714 L911.07304,639.151714 L164.974104,119.769232 C155.157252,112.921113 138.419429,117.765793 138.419429,127.491579 Z" id="Path" opacity="0.71"></path>
                <path d="M151.678553,0 L1030.53265,410.705017 C1042.7172,416.423925 1063.53476,412.38062 1063.53476,404.312225 L1229.69271,0 L151.678553,0 Z" id="Path" opacity="0.55"></path>
                <path d="M405.82391,699.692001 L873.900138,699.692001 C882.450124,699.692001 889.381258,706.623135 889.381258,715.173121 L889.381258,754.021627 L390.34279,754.021627 L390.34279,715.173121 C390.34279,706.623135 397.273924,699.692001 405.82391,699.692001 Z" id="Path"></path>
                <polygon id="Path" opacity="0.71" points="390.34279 720.545981 390.34279 754.003414 889.45411 754.003414"></polygon>
            </g>
            <g id="Group-2" transform="translate(1491.9854, 76.9874)">
                <path d="M1120.23955,599.953525 L1012.47549,599.953525 C1001.87289,600.413993 991.404486,597.442854 982.624601,591.481258 C975.046387,586.192113 969.358625,578.617678 966.392688,569.865101 L930.999199,465.347416 L702.960613,465.347416 L667.567124,569.865101 C664.423113,578.197325 658.920353,585.433454 651.731111,590.689458 C643.322546,596.99798 633.021038,600.264312 622.513667,599.953525 L513.720259,599.953525 L745.797028,0.32289645 L888.321144,0.32289645 L1120.23955,599.953525 Z M735.107719,370.727238 L898.852093,370.727238 L843.426048,206.586965 L830.836417,169.689055 C826.085613,155.595003 821.361203,140.313251 816.663186,123.843797 C812.229102,140.550791 807.795018,156.070083 803.044215,170.322495 C798.293411,184.574907 794.017687,196.926997 789.900324,207.378765 L735.107719,370.727238 Z" id="Shape"></path>
                <path d="M1403.38746,599.953525 L1301.48272,599.953525 C1291.38905,599.953525 1281.70995,595.938442 1274.58008,588.79372 C1267.45021,581.648997 1263.45526,571.961558 1263.47621,561.867914 L1263.47621,0.32289645 L1365.30185,0.32289645 C1386.33596,0.32289645 1403.38746,17.3744053 1403.38746,38.4085075 L1403.38746,599.953525 Z" id="Path"></path>
                <path d="M1547.416,0.32289645 L1659.37661,0.32289645 C1669.83354,-0.205889757 1680.19235,2.56384464 1688.98996,8.2409029 C1696.57651,13.6789851 1702.32235,21.3032762 1705.45941,30.0946007 L1821.53738,351.090582 C1826.68409,365.026274 1831.98915,380.308026 1837.3734,396.77748 C1842.75764,413.246933 1847.66681,430.508187 1852.41761,448.640422 C1856.21825,430.53458 1860.65234,413.246933 1865.71986,396.77748 C1870.86657,380.308026 1875.85491,365.105454 1880.76407,351.090582 L1995.97107,30.0946007 C2003.38021,11.6535397 2021.3908,-0.311536139 2041.26206,0.00617619152 L2154.01448,0.00617619152 L1913.6238,599.953525 L1787.7275,599.953525 L1547.416,0.32289645 Z" id="Path"></path>
                <path d="M495.033764,27.8775589 L505.247992,110.620726 L323.133843,110.620726 L323.133843,599.953525 L183.77693,599.953525 L183.77693,110.620726 L0,110.620726 L11.4019293,27.4816586 C13.6286396,12.0097644 26.8099588,0.476110091 42.4405146,0.32289645 L463.915998,0.32289645 C479.707626,0.465332083 492.981411,12.2192178 495.033764,27.8775589 L495.033764,27.8775589 Z" id="Path"></path>
            </g>
        </g>
    </g>
</svg>